<?xml version="1.0" encoding="iso-8859-1"?>
<!-- Uploaded to: SVG Repo, www.svgrepo.com, Generator: SVG Repo Mixer Tools -->
<svg height="800px" width="800px" version="1.1" id="Layer_1" xmlns="http://www.w3.org/2000/svg" xmlns:xlink="http://www.w3.org/1999/xlink" 
	 viewBox="0 0 507.506 507.506" xml:space="preserve">
<path style="fill:#54B265;" d="M456.076,382.306c-12.4-73.6-58-212.4-146.8-255.2l0,0c-2,2-4.8,2.8-8,2.8h-94.4c-2.8,0-5.6,0-7.6-4
	h-1.2c-88.4,44-133.2,177.6-146.4,255.6c-11.2,67.2,35.6,120.4,85.2,120.4h234C420.476,501.506,467.676,449.106,456.076,382.306z
	 M123.676,473.506h260.8H123.676z"/>
<path style="fill:#3C8E51;" d="M297.276,105.506h-94.4c-6.4,0-8.8,6.8-8.8,13.2v3.6c0,3.6,0,6.4,2.8,8.4c2,1.6,3.2,2.4,6,2.4h94.4
	c3.2,0,6.4-0.8,8.4-2.8c2.4-2,4.4-4.8,4.4-8.4v-3.6C310.076,112.306,304.076,105.506,297.276,105.506z"/>
<path style="fill:#54B265;" d="M302.076,101.506l22.4-82.8c2.4-8.4-2.4-12.8-10.8-10.8c0,0-32.8,10.8-44,14
	c-8.4,2.4-22.4,2.4-30.4,0c-11.2-3.2-44.4-13.6-44.4-13.6c-8.4-2-13.2,2-10.8,10.4l22.4,82.8h0.4h94.4H302.076z"/>
<path style="fill:#F4EFEF;" d="M226.076,315.906v89.6h-39.2c-4.4,0-8,1.6-8,6s3.6,6,8,6h39.2v5.6c0,4.4,3.6,8,8,8s8-3.6,8-8v-5.6h20
	v5.6c0,4.4,3.6,8,8,8s8-3.6,8-8v-4c28-2.4,54.8-28,54.8-59.2s-26.8-56.8-54.8-59.2v-87.2h39.2c4.4,0,8-3.6,8-8s-3.6-8-8-8h-39.2v-4
	c0-4.4-3.6-8-8-8s-8,3.6-8,8v4h-20v-4c0-4.4-3.6-8-8-8s-8,3.6-8,8v4c-28,2-55.2,27.6-55.2,59.2
	C170.876,288.306,198.076,313.906,226.076,315.906z M278.076,316.706c20,2.4,38.8,20.8,38.8,43.2c0,22.4-18.8,40.8-38.8,43.2
	V316.706z M242.076,213.506h20v88h-20V213.506z M242.076,317.506h20v88h-20V317.506z M226.076,213.506v86.8
	c-24-2-39.6-20.8-39.6-43.2C186.476,234.306,202.076,215.506,226.076,213.506z"/>
<path d="M370.876,507.506h-234c-23.6,0-47.2-12-64.4-32.4c-21.6-25.6-30.4-60-24.8-94.4c15.6-91.2,62-213.6,142.8-257.6
	c2-1.2,4.4-0.4,5.6,1.6c1.2,2,0.4,4.4-1.6,5.6c-78.4,42.8-123.6,162.4-138.8,252c-5.6,32.4,2.8,64.4,22.8,88
	c16,18.8,37.2,29.6,58.4,29.6h234c21.2,0,42.4-10.8,58.4-29.6c20-23.6,28.4-55.6,22.8-88c-11.2-67.6-55.6-207.6-141.6-252
	c-2-1.2-2.8-3.6-1.6-5.2s3.6-2.8,5.2-1.6c88.8,45.6,133.2,183.6,145.6,257.6c6,34.8-3.2,69.2-24.8,94.8
	C418.076,495.506,394.476,507.506,370.876,507.506z"/>
<path d="M300.476,135.506h-96.4c-8.8,0-16-7.6-16-16.4v-4.4c0-8.8,7.2-15.6,16-15.6h96.4c8.8,0,15.6,6.8,15.6,15.6v4.4
	C316.076,128.306,308.876,135.506,300.476,135.506z M204.076,107.506c-4.4,0-8,3.2-8,7.6v4.4c0,4.4,3.6,8.4,8,8.4h96.4
	c4.4,0,7.6-3.6,7.6-8.4v-4.4c0-4.4-3.2-7.6-7.6-7.6H204.076z"/>
<path d="M206.076,103.106c-1.6,0-3.2-1.2-4-2.8l-22.4-83.6c-1.6-5.2-0.8-10.4,2.4-13.2c3.2-3.2,8-4,13.2-2.8
	c0.4,0,33.6,10.8,44.4,13.6c7.6,2,20.8,2,28.4,0c10.8-3.2,43.6-13.6,44-13.6c5.6-1.6,10.4-0.4,13.6,2.8c3.2,3.2,4,8,2.4,13.6
	l-22.4,83.2c-0.4,2-2.8,3.2-4.8,2.8c-2-0.4-3.2-2.8-2.8-4.8l22.4-83.6c0.8-2.4,0.4-4.8-0.4-5.6c-0.8-1.2-3.2-1.2-5.6-0.4
	c-1.2,0.4-32.8,10.4-44,13.6c-9.2,2.4-23.6,2.8-32.8,0c-11.2-3.2-43.2-13.2-44.4-13.6c-2.4-0.8-4.4-0.4-5.6,0.8
	c-0.8,1.2-1.2,3.2-0.4,5.6l22.4,83.6c0.4,2-0.8,4.4-2.8,4.8C206.876,103.106,206.476,103.106,206.076,103.106z"/>
<path d="M386.076,479.506h-260c-2.4,0-4-1.6-4-4s1.6-4,4-4h260c2.4,0,4,1.6,4,4S388.476,479.506,386.076,479.506z"/>
<path d="M268.076,430.706c-5.2,0-9.2-3.2-11.2-7.2h-13.6c-1.6,4.4-6,7.2-11.2,7.2s-9.2-3.2-11.2-7.2h-30.4c-8.8,0-12-5.2-12-10
	c0-11.6,6.4-14,12-14h29.2v-84c-27.2-4-55.2-29.2-55.2-62.8c0-33.6,28-58.8,55.2-62.8v-0.4c0-6.4,5.2-12,12-12s12,5.2,12,12v2h12v-2
	c0-6.4,5.2-12,12-12s12,5.2,12,12v2h40.8c0.4,0,0.4,0,0.8,0c9.2,1.6,11.2,6,11.2,12c0,3.2,0,12-12,12h-40.8v77.6
	c30,4.4,54.8,32.4,54.8,62.8s-24.8,58-54.8,62.8v0.4C280.076,425.506,274.876,430.706,268.076,430.706z M260.076,415.106
	c2.4,0,4,1.6,4,4c0,2,2,4,4,4s4-1.6,4-4v-4c0-2,1.6-4,3.6-4c24.8-2,50.8-24.8,50.8-55.2s-26.4-52.8-50.8-55.2c-2,0-3.6-2-3.6-4
	v-85.2c0-2.4,1.6-4,4-4h44.8c4,0,4-0.4,4-4c0-2.8,0-3.2-4.4-4h-44.8c-2.4,0-4-1.6-4-4v-6c0-2-2-4-4-4s-4,1.6-4,4v6c0,2.4-1.6,4-4,4
	h-20c-2.4,0-4-1.6-4-4v-6c0-2-2-4-4-4s-4,1.6-4,4v4c0,2-1.6,4-3.6,4c-24.4,2-51.6,24.8-51.6,55.2c0,30,27.2,53.2,51.6,55.2
	c2,0,3.6,2,3.6,4v91.6c0,2.4-1.6,4-4,4h-33.2c-2.4,0-4,0.4-4,6c0,0.8,0,2,4,2h31.6c0.4-0.4,1.2-0.4,2-0.4c2.4,0,4,1.6,4,4
	c0,2,2,4,4,4s4-1.6,4-4s1.6-4,4-4c0.8,0,1.2,0,2,0.4h16C258.876,415.106,259.276,415.106,260.076,415.106z M260.076,407.506h-20
	c-2.4,0-4-1.6-4-4v-88c0-2.4,1.6-4,4-4h20c2.4,0,4,1.6,4,4v88C264.076,405.906,262.476,407.506,260.076,407.506z M244.076,399.506
	h12v-80h-12V399.506z M276.076,403.106c-0.8,0-2-0.4-2.8-1.2c-0.8-0.8-1.2-2-1.2-2.8v-86.4c0-1.2,0.4-2.4,1.2-2.8
	c0.8-0.8,2-1.2,3.2-0.8c23.2,2.8,42.4,24,42.4,47.2s-19.2,44.4-42.4,47.2C276.476,403.106,276.076,403.106,276.076,403.106z
	 M280.076,317.506v76.8c15.6-4,30.8-19.2,30.8-38.4S295.676,321.506,280.076,317.506z M260.076,303.506h-20c-2.4,0-4-1.6-4-4v-88
	c0-2.4,1.6-4,4-4h20c2.4,0,4,1.6,4,4v88C264.076,301.906,262.476,303.506,260.076,303.506z M244.076,295.506h12v-80h-12V295.506z
	 M224.076,300.306C224.076,300.306,223.676,300.306,224.076,300.306c-25.6-2.4-43.6-21.6-43.6-47.2s17.6-45.2,43.2-47.2
	c1.2,0,2.4,0.4,3.2,1.2c0.8,0.8,1.2,2,1.2,2.8v86.8c0,1.2-0.4,2-1.2,2.8C226.076,299.906,224.876,300.306,224.076,300.306z
	 M220.076,214.306c-18.8,3.6-31.6,18.8-31.6,38.8s12.8,35.2,31.6,38.8V214.306z"/>
</svg>